<svg viewBox="0 0 87.3 200" xmlns="http://www.w3.org/2000/svg"><style>.st0{fill:#1d1d1b}.st3{fill:#ededed}.st4{fill:#eb6467}</style><path id="BodyBlack" class="st0" d="M84.2 193.8h-3.4l-2.9-30.4c0-2.1-1.7-3.7-3.7-3.7h-3.8l-2.9-89.5 4.4-4.4c1.7 0 3.1-1.4 3.1-3.1s-1.4-3.1-3.1-3.1h-6.2V47c1.7 0 3.1-1.4 3.1-3.1s-1.4-3.1-3.1-3.1h-3.3V22.2h.2c1.7 0 3.1-1.4 3.1-3.1S64.3 16 62.6 16h-1.1c-1.4-5-7.3-8.9-14.6-9.8v-3c0-1.7-1.4-3.1-3.1-3.1s-3.1 1.4-3.1 3.1v3c-7.3.9-13.2 4.8-14.6 9.8H25c-1.7 0-3.1 1.4-3.1 3.1s1.4 3.1 3.1 3.1v18.6h-3.3c-1.7 0-3.1 1.4-3.1 3.1S20 47 21.7 47v12.4h-6.2c-1.7 0-3.1 1.4-3.1 3.1s1.4 3.1 3.1 3.1l4.4 4.4-2.9 89.6h-3.8c-2.1 0-3.7 1.7-3.7 3.7l-2.9 30.4H3.1c-1.7 0-3.1 1.4-3.1 3.1s1.4 3.1 3.1 3.1h81.1c1.7 0 3.1-1.4 3.1-3.1s-1.4-3-3.1-3z"/><g id="BodyColor"><path fill="#b0def7" d="M31.1 21.9h25.2v19.4H31.1z"/><path fill="#dbdbde" d="M61 59.2H26.4l.3-12.4h34z"/><path class="st3" d="M65.3 140.4H22l2.5-37.7h38.3z"/><path class="st4" d="M65.5 159.2H21.9l1.2-12.5h41.1z"/><path class="st3" d="M74.8 193.5H12.5l2.5-28.2h57z"/><path class="st4" d="M62.4 96.7H25l1.2-18.8h34.6z"/><path fill="#cac9cd" d="M60.8 71.9H26.5L25 65.3h37.4z"/><path d="M43.7 11.8c-5.1 0-9.6 1.6-9.6 4h19.2c0-2.4-4.5-4-9.6-4z" fill="#a4a3ab"/></g><g id="Light"><path d="M65.5 30.3c0 1.3 1.1 2.3 2.3 2.3h9.4c1.3 0 2.3-1.1 2.3-2.3 0-1.3-1.1-2.3-2.3-2.3h-9.4c-1.2-.1-2.3 1-2.3 2.3zM21.7 30.5c0 1.3-1.1 2.3-2.3 2.3H10c-1.3 0-2.3-1.1-2.3-2.3 0-1.3 1.1-2.3 2.3-2.3h9.4c1.3-.1 2.3 1 2.3 2.3zM21.7 25.3c-.1.8-1 1.4-1.8 1.3l-6.1-1.1c-.8-.1-1.4-1-1.3-1.8.1-.8 1-1.4 1.8-1.3l6.1 1.1c.9.1 1.4.9 1.3 1.8zM21.6 35.4c.3.8-.1 1.7-.9 2l-5.9 2.1c-.8.3-1.7-.1-2-.9-.3-.8.1-1.7.9-2l5.9-2.1c.8-.3 1.7.1 2 .9zM65.6 25.1c.1.8 1 1.4 1.8 1.3l6.1-1.1c.8-.1 1.4-1 1.3-1.8-.1-.8-1-1.4-1.8-1.3l-6.1 1.1c-.9.1-1.5.9-1.3 1.8zM65.6 35.2c-.3.8.1 1.7.9 2l5.9 2.1c.8.3 1.7-.1 2-.9.3-.8-.1-1.7-.9-2l-5.9-2.1c-.8-.3-1.7.1-2 .9z"/><linearGradient id="LightGradient" gradientUnits="userSpaceOnUse" x1="43.626" y1="40.798" x2="43.626" y2="15.6"><stop offset="0" stop-color="#ffd318"/><stop offset=".452" stop-color="#f9b515"/></linearGradient><path fill="url(#LightGradient)" d="M31 21.9h25.2v19.4H31z"/></g><path id="Lamp" d="M46.8 41.3v-10c0-1.7-1.4-3.1-3.1-3.1-1.7 0-3.1 1.4-3.1 3.1v10h6.2z"/><path id="Window_x5F_Upper" d="M43.7 84.5c1.7 0 3.1 1.4 3.1 3.1v3.1c0 1.7-1.4 3.1-3.1 3.1-1.7 0-3.1-1.4-3.1-3.1v-3.1c0-1.7 1.4-3.1 3.1-3.1z"/><path id="Window_x5F_Lower" d="M43.7 128.2c1.7 0 3.1 1.4 3.1 3.1v3.1c0 1.7-1.4 3.1-3.1 3.1-1.7 0-3.1-1.4-3.1-3.1v-3.1c0-1.6 1.4-3.1 3.1-3.1z"/><path id="Bluck_3" class="st0" d="M51.4 65.3h6.2V72h-6.2z"/><path id="Block_2" class="st0" d="M29.7 65.3h6.2V72h-6.2z"/><path id="Block_1" class="st0" d="M40.6 65.3h6.2V72h-6.2z"/><g id="Door"><path class="st0" d="M48.2 197.7h-9c-2.6 0-4.8-2.1-4.8-4.8v-19.3c0-2.6 2.1-4.8 4.8-4.8h9c2.6 0 4.8 2.1 4.8 4.8v19.3c0 2.7-2.2 4.8-4.8 4.8z"/><path class="st4" d="M39.7 173.2h7.9v20.4h-7.9z"/></g></svg>
